<svg width="329" height="329" viewBox="0 0 329 329" fill="none" xmlns="http://www.w3.org/2000/svg">
<path d="M0 296.1C54.5106 296.1 98.6997 251.91 98.6997 197.4C98.6997 142.889 54.5106 98.7 0 98.7V167.789C16.353 167.789 29.6098 181.046 29.6098 197.4C29.6098 213.753 16.353 227.01 0 227.01V296.1Z" fill="#FD7FA3"/>
<path d="M329 131.601C312.133 126.258 294.172 123.375 275.537 123.375C177.872 123.375 98.7002 202.549 98.7002 300.212C98.7002 310.015 99.4979 319.632 101.031 329H210.906C206.984 320.206 204.803 310.464 204.803 300.212C204.803 261.147 236.471 229.477 275.537 229.477C296.889 229.477 316.03 238.938 329 253.895V131.601Z" fill="#FFCEDC"/>
<path d="M17.3525 0C25.5354 74.0241 88.2936 131.6 164.499 131.6C240.703 131.6 303.462 74.0241 311.644 0H205.767C199.231 16.386 183.216 27.9649 164.499 27.9649C145.78 27.9649 129.767 16.386 123.23 0H17.3525Z" fill="#E16F8F"/>
</svg>
